<svg width="184" height="72" viewBox="0 0 184 72" fill="none" xmlns="http://www.w3.org/2000/svg">
<g clip-path="url(#clip0_222_291)">
<path d="M44.6087 29.7921C46.5154 28.0443 47.4887 25.8596 47.4887 23.3173C47.4887 21.5099 47.0517 19.8813 46.1579 18.4513C45.4032 17.2 44.3903 16.2466 43.139 15.5713C44.1122 14.8762 44.9067 13.9427 45.5224 12.7907C46.2572 11.4402 46.6147 9.99029 46.6147 8.48082C46.6147 6.07759 45.721 4.03187 43.9732 2.42309C42.2651 0.814318 40.0208 0 37.3593 0H24.4891V32.4138H37.5381C40.3385 32.4138 42.7021 31.5201 44.6087 29.7921ZM29.1764 4.64757H37.2799C38.5907 4.64757 39.6633 5.06466 40.557 5.9187C41.4508 6.77274 41.8679 7.78567 41.8679 9.01708C41.8679 10.2485 41.4508 11.2614 40.557 12.1155C39.6831 12.9695 38.6106 13.3866 37.2997 13.3866H29.1764V4.64757ZM29.1764 27.7265V18.0143H37.4984C38.988 18.0143 40.1995 18.4711 41.1727 19.4046C42.1459 20.3381 42.6425 21.4702 42.6425 22.8605C42.6425 24.2706 42.1658 25.4027 41.1926 26.3362C40.2194 27.2697 39.0078 27.7265 37.4984 27.7265H29.1764Z" fill="#E85F5C"/>
<path d="M56.3865 31.242C58.3329 32.3741 60.5376 32.9501 62.9209 32.9501C65.6419 32.9501 68.065 32.2152 70.1703 30.7852C72.2558 29.3552 73.8646 27.3293 74.9371 24.7473L75.1556 24.2309H70.3094L70.1902 24.4295C69.4553 25.6808 68.4623 26.6937 67.211 27.3889C65.9597 28.1039 64.5297 28.4614 62.9209 28.4614C60.7362 28.4614 58.8692 27.806 57.3796 26.4951C55.9893 25.2836 55.1154 23.6748 54.7777 21.7085H75.4932L75.5329 21.3709C75.5726 20.8942 75.5925 20.4175 75.5925 19.9607C75.5925 17.5376 75.0761 15.3131 74.0433 13.3071C73.0105 11.3011 71.5011 9.69236 69.5546 8.52053C67.6281 7.34871 65.3837 6.75287 62.9209 6.75287C60.5376 6.75287 58.3528 7.32885 56.3865 8.46095C54.4202 9.59305 52.8711 11.182 51.7588 13.188C50.6466 15.194 50.0905 17.4383 50.0905 19.8614C50.0905 22.3242 50.6466 24.5686 51.7588 26.5547C52.8711 28.521 54.4202 30.09 56.3865 31.242ZM57.5583 12.9298C59.0082 11.7182 60.8156 11.1025 62.9209 11.1025C65.0064 11.1025 66.7939 11.6984 68.2438 12.9099C69.5745 14.0221 70.4881 15.5118 70.9251 17.3787H54.8969C55.314 15.5515 56.2078 14.042 57.5583 12.9298Z" fill="#E85F5C"/>
<path d="M104.272 23.3769V11.46H111.939V7.24942H104.272V2.08545H103.14L95.3745 10.2684V11.4799H99.6844V23.5159C99.6844 26.2568 100.479 28.4415 102.068 30.0305C102.862 30.8448 103.816 31.4406 104.928 31.8378V26.1376C104.491 25.4027 104.272 24.4891 104.272 23.3769Z" fill="#E85F5C"/>
<path d="M80.6572 23.4961C80.6572 26.2369 81.4516 28.4217 83.0207 30.0106C84.5897 31.5995 86.1588 32.394 88.8798 32.394L93.2096 28.1039H89.992C88.4429 28.1039 87.2512 27.6868 86.4369 26.8924C85.6225 26.0979 85.2253 24.9062 85.2253 23.3769V11.46H92.8918V7.24942H85.2253V2.08545H84.0932L76.3274 10.2684V11.4799H80.6373V23.4961H80.6572Z" fill="#E85F5C"/>
<path d="M119.447 31.242C121.393 32.3741 123.598 32.9501 125.981 32.9501C128.702 32.9501 131.125 32.2152 133.23 30.7852C135.316 29.3552 136.925 27.3293 137.997 24.7473L138.216 24.2309H133.369L133.25 24.4295C132.535 25.6808 131.522 26.6937 130.271 27.3889C129.02 28.1039 127.59 28.4614 125.981 28.4614C123.796 28.4614 121.929 27.806 120.44 26.4951C119.049 25.2836 118.175 23.6748 117.838 21.7085H138.553L138.593 21.3709C138.633 20.8942 138.652 20.4175 138.652 19.9607C138.652 17.5376 138.136 15.3131 137.103 13.3071C136.07 11.3011 134.561 9.69236 132.634 8.52053C130.708 7.34871 128.464 6.75287 126.001 6.75287C123.617 6.75287 121.413 7.32885 119.466 8.46095C117.52 9.59305 115.951 11.182 114.839 13.188C113.726 15.194 113.17 17.4383 113.17 19.8614C113.17 22.3242 113.726 24.5686 114.839 26.5547C115.931 28.521 117.5 30.09 119.447 31.242ZM120.618 12.9298C122.068 11.7182 123.876 11.1025 125.981 11.1025C128.066 11.1025 129.854 11.6984 131.284 12.9099C132.615 14.0221 133.528 15.5118 133.965 17.3787H117.937C118.374 15.5515 119.268 14.042 120.618 12.9298Z" fill="#E85F5C"/>
<path d="M146.458 18.769C146.458 16.485 147.034 14.6974 148.186 13.4064C149.338 12.1353 150.967 11.4998 153.052 11.4998H155.932V7.11038H153.39C150.172 7.11038 147.61 8.22262 145.803 10.4074L145.286 7.24941H141.85V32.4138H146.458V18.769Z" fill="#E85F5C"/>
<path d="M21.927 27.9847H0V32.4734H9.63279V60.3986H14.3598V32.4734H21.927V27.9847Z" fill="#E85F5C"/>
<path d="M80.6175 36.4655C78.6909 35.2937 76.4466 34.6979 73.9838 34.6979C71.6004 34.6979 69.3958 35.2739 67.4494 36.406C65.503 37.5381 63.9339 39.127 62.8217 41.133C61.7094 43.139 61.1533 45.3833 61.1533 47.8064C61.1533 50.2692 61.7094 52.5136 62.8217 54.4997C63.9339 56.4858 65.4831 58.0748 67.4494 59.2069C69.3958 60.339 71.6004 60.9149 73.9838 60.9149C76.7048 60.9149 79.1279 60.1801 81.2332 58.75C83.3187 57.32 84.9274 55.2942 85.9999 52.7122L86.2184 52.1958H81.3722L81.2729 52.3944C80.5381 53.6457 79.545 54.6586 78.2937 55.3537C77.0425 56.0688 75.6124 56.4263 74.0037 56.4263C71.8189 56.4263 69.9519 55.7708 68.4623 54.46C67.072 53.2484 66.1981 51.6397 65.8605 49.6734H86.5759L86.6157 49.3357C86.6554 48.8591 86.6752 48.3824 86.6752 47.9256C86.6752 45.5025 86.1588 43.278 85.126 41.272C84.0535 39.266 82.5639 37.6572 80.6175 36.4655ZM65.9399 45.3635C66.357 43.5362 67.2706 42.0466 68.6013 40.9145C70.0512 39.703 71.8586 39.0872 73.9639 39.0872C76.0494 39.0872 77.8369 39.6831 79.2669 40.8946C80.5976 42.0069 81.5113 43.4965 81.9482 45.3635H65.9399Z" fill="#E85F5C"/>
<path d="M97.1422 54.8771C96.3477 54.0826 95.9306 52.891 95.9306 51.3616V39.4448H103.597V35.2342H95.9306V30.0702H94.7985L87.0327 38.2531V39.4646H91.3426V51.5007C91.3426 54.2415 92.1371 56.4263 93.7061 58.0152C95.2752 59.6041 97.46 60.4184 100.181 60.4184H103.716V56.1085H100.697C99.1482 56.0886 97.9366 55.6715 97.1422 54.8771Z" fill="#E85F5C"/>
<path d="M120.062 34.6979C118.275 34.6979 116.626 35.0554 115.137 35.7505C113.965 36.3067 112.952 37.0217 112.078 37.9353V26.3164H107.47V37.3593V60.3986H112.078V46.714C112.078 44.5293 112.753 42.6623 114.104 41.1926C115.454 39.703 117.083 38.9681 119.069 38.9681C121.095 38.9681 122.585 39.5838 123.657 40.8351C124.73 42.0863 125.266 43.9334 125.266 46.3168V60.3986H129.854V45.4032C129.854 42.1658 128.96 39.5441 127.212 37.6175C125.465 35.6711 123.061 34.6979 120.062 34.6979Z" fill="#E85F5C"/>
<path d="M152.198 36.4655C150.272 35.2937 148.027 34.6979 145.564 34.6979C143.181 34.6979 140.976 35.2739 139.03 36.406C137.084 37.5381 135.514 39.127 134.402 41.133C133.29 43.139 132.734 45.3833 132.734 47.8064C132.734 50.2692 133.29 52.5136 134.402 54.4997C135.514 56.4858 137.064 58.0748 139.03 59.2069C140.976 60.339 143.181 60.9149 145.564 60.9149C148.285 60.9149 150.708 60.1801 152.814 58.75C154.899 57.32 156.508 55.2942 157.581 52.7122L157.799 52.1958H152.933L152.814 52.3944C152.079 53.6457 151.086 54.6586 149.835 55.3537C148.583 56.0688 147.153 56.4263 145.544 56.4263C143.36 56.4263 141.493 55.7708 140.003 54.46C138.613 53.2484 137.739 51.6397 137.401 49.6734H158.117L158.156 49.3357C158.196 48.8591 158.216 48.3824 158.216 47.9256C158.216 45.5025 157.7 43.278 156.667 41.272C155.634 39.266 154.125 37.6572 152.198 36.4655ZM137.52 45.3635C137.938 43.5362 138.851 42.0466 140.182 40.9145C141.632 39.703 143.439 39.0872 145.544 39.0872C147.63 39.0872 149.417 39.6831 150.867 40.8946C152.198 42.0069 153.112 43.4965 153.549 45.3635H137.52Z" fill="#E85F5C"/>
<path d="M165.545 38.3921L165.028 35.2342H161.592V60.3986H166.2V46.7538C166.2 44.4697 166.776 42.6822 167.928 41.3912C169.06 40.1201 170.709 39.4845 172.794 39.4845H175.674V35.0951H173.132C169.914 35.0951 167.372 36.2074 165.545 38.3921Z" fill="#E85F5C"/>
<path d="M54.3409 38.4716C53.5464 37.697 52.6328 37.0217 51.6198 36.4457C49.594 35.3335 47.3298 34.7575 44.8471 34.7575C43.6951 34.7575 42.563 34.8766 41.5104 35.1348C41.0337 35.254 40.557 35.3732 40.1399 35.5321C39.7229 35.6711 39.2859 35.8499 38.8688 36.0485C38.6106 36.1676 38.3326 36.3067 38.0744 36.4457C36.9423 37.0813 35.9293 37.8559 35.0554 38.7695C34.5192 39.3455 34.0226 39.981 33.5857 40.6563L33.3871 40.9741C33.3473 41.0138 33.3275 41.0535 33.3076 41.1131C32.1557 43.0993 31.5797 45.3635 31.5797 47.8064C31.5797 50.4877 32.255 52.8909 33.5658 54.9367L33.6453 55.0558L33.824 55.036C35.3136 54.9168 36.5649 54.4401 37.6374 53.606L37.7764 53.4868L37.6573 53.3478C36.5053 51.8184 35.9095 49.9713 35.9095 47.8064C35.9095 45.6614 36.5053 43.7944 37.6573 42.2651L37.6771 42.2254C37.9353 41.9076 38.1737 41.6295 38.412 41.3912C38.6106 41.1926 38.8291 40.994 39.0476 40.8152C40.0605 39.981 41.2522 39.405 42.5829 39.1071L42.7021 39.0873C43.4767 38.9284 44.3307 38.8688 45.1649 38.8887C47.6078 38.9681 49.8124 39.9612 51.4212 41.709C52.9903 43.4369 53.7847 45.7011 53.6457 48.1043C53.4074 51.9177 50.8651 54.2018 48.1838 56.6249C48.0448 56.7441 47.9058 56.8632 47.7866 56.9824C47.6476 57.1016 47.5284 57.2207 47.3894 57.3399C47.0716 57.6378 46.7538 57.9357 46.4161 58.2337L46.3168 58.3131C45.5224 59.0281 44.7279 59.7829 43.8937 60.4979L38.9483 64.8872L35.9095 62.1662L35.83 62.1861C34.2014 62.4443 32.5529 62.4641 30.9441 62.2258C30.8448 62.2059 30.7455 62.1861 30.6462 62.1861L29.673 62.0073L30.7256 62.9607C32.6919 64.7482 34.6383 66.5159 36.6046 68.2835L38.1339 69.654C38.6503 70.1307 39.5044 70.1108 40.0208 69.6341L44.4896 65.5427C46.3963 63.8147 48.5413 61.8484 50.587 59.8822C50.9247 59.5644 51.2623 59.2466 51.6 58.9288C53.3279 57.3002 55.1154 55.6318 56.3667 53.5265C56.8632 52.6923 57.2605 51.8184 57.5187 50.9048C58.5117 47.6277 58.1145 44.0526 56.4064 41.1131C55.8305 40.1598 55.1552 39.2462 54.3409 38.4716Z" fill="#E85F5C"/>
<path d="M33.2679 60.7561C35.691 60.7561 37.9155 60.1999 39.9016 59.1076C39.9612 59.0678 40.0407 59.0281 40.1002 58.9884L40.279 58.8692C41.6693 58.035 42.8411 56.9824 43.7746 55.7113C44.0725 55.314 44.3307 54.9367 44.5691 54.5196C44.6882 54.321 44.7875 54.1223 44.8868 53.9237C45.8005 52.1362 46.2573 50.1302 46.2573 47.9653C46.2573 45.5621 45.6813 43.3773 44.5691 41.411C44.4499 41.1926 44.291 40.9542 44.1321 40.696L44.0725 40.6166H43.9732C43.8342 40.6166 43.6952 40.6364 43.5561 40.6563C42.2055 40.7755 41.0735 41.2124 40.0804 41.987L39.9215 42.1062L40.0407 42.2452C41.3316 43.7745 41.9871 45.6614 42.0069 47.866C42.0069 49.9912 41.4111 51.8383 40.2591 53.3478C40.0208 53.6655 39.7626 53.9635 39.5044 54.2217C39.2859 54.4401 39.0873 54.6189 38.8688 54.7976C38.0347 55.4928 37.0614 56.0092 36.0088 56.327C35.7506 56.4064 35.4924 56.4859 35.2342 56.5256C34.539 56.6646 33.824 56.7441 33.109 56.7441C33.0296 56.7441 32.9501 56.7441 32.8508 56.7441H32.7714C31.1825 56.7043 29.7723 56.327 28.5409 55.6119C27.9053 55.2544 27.3095 54.7976 26.7931 54.2812L26.7335 54.2415C25.0652 52.5533 24.2111 50.4083 24.2111 47.8263C24.2111 45.2443 25.0453 43.0993 26.7136 41.411C28.3026 39.8221 30.3284 38.9681 32.7515 38.9085H32.8508L32.9104 38.8291C33.7843 37.6572 34.8767 36.6443 36.1081 35.7704L36.4855 35.5122L36.0485 35.4328C35.1349 35.254 34.2213 35.1746 33.3275 35.1746C30.9044 35.1746 28.6799 35.7307 26.6938 36.8231C24.7076 37.9154 23.1386 39.4646 22.0264 41.411C20.9141 43.3575 20.3381 45.5621 20.3381 47.9653C20.3381 49.4748 20.5566 50.9247 20.9936 52.2554C21.5894 54.0826 22.6222 55.7113 24.0522 57.1214C24.5885 57.6577 25.2042 58.1542 25.8993 58.611C27.4882 59.6637 29.2758 60.339 31.2222 60.617C31.8379 60.7163 32.533 60.7561 33.2679 60.7561Z" fill="#E85F5C"/>
<path d="M179.785 31.5598C179.666 31.5201 179.507 31.4803 179.309 31.4207C179.15 31.381 179.011 31.3413 178.951 31.3214C178.872 31.2817 178.832 31.242 178.832 31.1824C178.832 31.1228 178.872 31.0632 178.931 31.0235C178.991 30.9838 179.09 30.9639 179.229 30.9639C179.448 30.9639 179.686 31.0235 179.924 31.1625L180.143 30.6462C180.024 30.5667 179.885 30.527 179.726 30.4873C179.567 30.4475 179.408 30.4277 179.249 30.4277C179.011 30.4277 178.812 30.4674 178.653 30.527C178.494 30.6064 178.375 30.6859 178.276 30.8249C178.197 30.9441 178.157 31.0831 178.157 31.242C178.157 31.4207 178.197 31.5598 178.296 31.6591C178.395 31.7584 178.494 31.8378 178.614 31.8776C178.733 31.9173 178.892 31.957 179.09 32.0166C179.269 32.0563 179.388 32.096 179.468 32.1159C179.547 32.1556 179.587 32.1953 179.587 32.2748C179.587 32.4138 179.448 32.4734 179.19 32.4734C179.051 32.4734 178.912 32.4535 178.753 32.4138C178.614 32.3741 178.475 32.3145 178.375 32.2351L178.137 32.7515C178.256 32.8309 178.415 32.8905 178.594 32.9501C178.792 32.9898 178.971 33.0295 179.17 33.0295C179.408 33.0295 179.607 32.9898 179.766 32.9302C179.924 32.8508 180.064 32.7713 180.143 32.6323C180.222 32.5131 180.262 32.3741 180.262 32.2351C180.262 32.0563 180.222 31.9173 180.123 31.818C180.004 31.6789 179.905 31.5995 179.785 31.5598Z" fill="#E85F5C"/>
<path d="M183.44 30.4674H182.864L182.01 31.8974L181.136 30.4674H180.56V32.9501H181.215V31.6591L181.831 32.6919H182.149L182.785 31.6194L182.804 32.9501H183.44V30.4674Z" fill="#E85F5C"/>
<path d="M53.0895 64.6489C53.4471 64.6489 53.7648 64.7283 54.0429 64.8872C54.321 65.0461 54.5593 65.2646 54.7182 65.5427C54.8771 65.8207 54.9565 66.1385 54.9565 66.4761C54.9565 66.9925 54.7778 67.4295 54.4203 67.787C54.0628 68.1445 53.6059 68.3034 53.0697 68.3034H52.1759V69.9718H51.0438V64.6489H53.0895ZM53.03 67.2507C53.2484 67.2507 53.4471 67.1713 53.5861 67.0323C53.7251 66.8932 53.8046 66.7145 53.8046 66.4761C53.8046 66.2378 53.7251 66.0789 53.5861 65.92C53.4471 65.7611 53.2683 65.7015 53.03 65.7015H52.1759V67.2309H53.03V67.2507Z" fill="#E85F5C"/>
<path d="M57.5981 70.0909C57.181 70.0909 56.8036 69.9916 56.4659 69.8129C56.1283 69.6341 55.8701 69.3561 55.6715 69.0383C55.4729 68.7006 55.3934 68.3431 55.3934 67.926C55.3934 67.5089 55.4927 67.1514 55.6715 66.8138C55.8701 66.4761 56.1283 66.218 56.4659 66.0392C56.8036 65.8604 57.181 65.7611 57.5981 65.7611C58.0151 65.7611 58.3925 65.8604 58.7302 66.0392C59.0678 66.218 59.326 66.4761 59.5246 66.8138C59.7232 67.1514 59.8225 67.5089 59.8225 67.926C59.8225 68.3233 59.7232 68.7006 59.5246 69.0383C59.326 69.3759 59.0678 69.6341 58.7302 69.8129C58.3925 70.0115 58.0151 70.0909 57.5981 70.0909ZM56.8036 68.7404C57.0022 68.9588 57.2803 69.0581 57.5981 69.0581C57.9158 69.0581 58.174 68.9588 58.3925 68.7404C58.611 68.5219 58.7103 68.2637 58.7103 67.926C58.7103 67.5884 58.611 67.3302 58.3925 67.1117C58.174 66.8932 57.9158 66.7939 57.5981 66.7939C57.2803 66.7939 57.0221 66.8932 56.8036 67.1117C56.605 67.3302 56.4858 67.5884 56.4858 67.926C56.5057 68.2637 56.605 68.5417 56.8036 68.7404Z" fill="#E85F5C"/>
<path d="M65.2845 65.8803H66.3768L65.0263 69.9916H64.1524L63.2189 67.8665L62.3053 69.9916H61.4115L60.0609 65.8803H61.193L62.0073 68.3233L63.0799 65.9002H63.3976L64.5099 68.3233L65.2845 65.8803Z" fill="#E85F5C"/>
<path d="M70.8853 67.9062C70.8853 68.0253 70.8853 68.1246 70.8655 68.2239H67.7472C67.7869 68.502 67.9061 68.7205 68.0849 68.8595C68.2636 69.0184 68.4821 69.078 68.7601 69.078C68.9588 69.078 69.1176 69.0383 69.2765 68.9588C69.4354 68.8794 69.5546 68.7602 69.634 68.6013H70.8059C70.6668 69.0581 70.4086 69.3958 70.0313 69.6738C69.6738 69.932 69.2368 70.0711 68.7601 70.0711C68.3629 70.0711 68.0054 69.9718 67.6678 69.793C67.35 69.5944 67.0918 69.3362 66.8932 69.0184C66.6946 68.7006 66.6151 68.3233 66.6151 67.9062C66.6151 67.5089 66.7144 67.1316 66.8932 66.7939C67.0719 66.4563 67.3301 66.1981 67.6678 66.0193C67.9856 65.8406 68.3629 65.7413 68.7601 65.7413C69.1772 65.7413 69.5347 65.8406 69.8724 66.0392C70.1902 66.2378 70.4484 66.496 70.6271 66.8138C70.8059 67.1713 70.8853 67.5288 70.8853 67.9062ZM68.7601 66.7145C68.5218 66.7145 68.3033 66.7741 68.1444 66.9131C67.9657 67.0521 67.8465 67.2309 67.7869 67.4891H69.7731C69.6936 67.2309 69.5745 67.0521 69.3957 66.9131C69.2368 66.7741 69.0183 66.7145 68.7601 66.7145Z" fill="#E85F5C"/>
<path d="M73.7851 65.8604H74.1426V66.9131H73.666C73.3482 66.9131 73.1297 66.9925 72.9907 67.1316C72.8516 67.2706 72.792 67.5288 72.792 67.8664V70.0115H71.6798V65.9002H72.3948L72.5934 66.3967C72.8715 66.0392 73.2687 65.8604 73.7851 65.8604Z" fill="#E85F5C"/>
<path d="M78.6711 67.9062C78.6711 68.0253 78.6711 68.1246 78.6512 68.2239H75.533C75.5727 68.502 75.6919 68.7205 75.8706 68.8595C76.0494 69.0184 76.2678 69.078 76.5459 69.078C76.7445 69.078 76.9034 69.0383 77.0623 68.9588C77.2212 68.8794 77.3404 68.7602 77.4198 68.6013H78.5916C78.4526 69.0581 78.1944 69.3958 77.817 69.6738C77.4595 69.932 77.0226 70.0711 76.5459 70.0711C76.1487 70.0711 75.7912 69.9718 75.4535 69.793C75.1357 69.5944 74.8776 69.3362 74.6789 69.0184C74.4803 68.7006 74.4009 68.3233 74.4009 67.9062C74.4009 67.5089 74.5002 67.1316 74.6789 66.7939C74.8577 66.4563 75.1159 66.1981 75.4535 66.0193C75.7713 65.8406 76.1487 65.7413 76.5459 65.7413C76.963 65.7413 77.3205 65.8406 77.6581 66.0392C77.9958 66.2378 78.2341 66.496 78.4129 66.8138C78.5718 67.1713 78.6711 67.5288 78.6711 67.9062ZM76.5459 66.7145C76.3076 66.7145 76.0891 66.7741 75.9302 66.9131C75.7515 67.0521 75.6323 67.2309 75.5727 67.4891H77.5588C77.4794 67.2309 77.3602 67.0521 77.1815 66.9131C77.0027 66.7741 76.7842 66.7145 76.5459 66.7145Z" fill="#E85F5C"/>
<path d="M82.4845 64.3907H83.5967V69.9717H82.7824L82.6434 69.6341C82.2859 69.9519 81.8489 70.0909 81.3524 70.0909C80.7367 70.0909 80.2203 69.8923 79.8032 69.4752C79.3861 69.0581 79.1875 68.5417 79.1875 67.926C79.1875 67.6281 79.2471 67.3302 79.3464 67.072C79.4457 66.8138 79.6046 66.5754 79.8032 66.3768C80.0018 66.1782 80.2203 66.0392 80.4983 65.92C80.7565 65.8008 81.0545 65.7611 81.3524 65.7611C81.7695 65.7611 82.1468 65.8803 82.4845 66.0988V64.3907ZM80.6374 68.7403C80.8559 68.9588 81.1141 69.0581 81.4318 69.0581C81.7496 69.0581 82.0277 68.9588 82.2263 68.7403C82.4448 68.5219 82.5441 68.2637 82.5441 67.9459C82.5441 67.6281 82.4448 67.35 82.2263 67.1514C82.0078 66.9329 81.7496 66.8336 81.4318 66.8336C81.1141 66.8336 80.836 66.9329 80.6374 67.1514C80.4189 67.3699 80.3196 67.6281 80.3196 67.9657C80.3196 68.3034 80.4189 68.5219 80.6374 68.7403Z" fill="#E85F5C"/>
<path d="M88.701 65.7611C89.1181 65.7611 89.4756 65.8604 89.8132 66.0392C90.1509 66.2179 90.4091 66.4761 90.5878 66.8138C90.7666 67.1514 90.8659 67.5089 90.8659 67.926C90.8659 68.3431 90.7666 68.7006 90.5878 69.0383C90.4091 69.3759 90.1509 69.6341 89.8132 69.8128C89.4756 69.9916 89.1181 70.0909 88.701 70.0909C88.2045 70.0909 87.7874 69.932 87.41 69.6341L87.271 69.9717H86.4567V64.3907H87.5689V66.0988C87.9065 65.8803 88.2839 65.7611 88.701 65.7611ZM87.8072 68.7205C88.0257 68.9389 88.2839 69.0383 88.6017 69.0383C88.9195 69.0383 89.1975 68.9389 89.3962 68.7205C89.6146 68.502 89.7139 68.2438 89.7139 67.926C89.7139 67.6082 89.6146 67.3302 89.3962 67.1117C89.1777 66.8932 88.9195 66.7939 88.6017 66.7939C88.2839 66.7939 88.0059 66.8932 87.8072 67.1117C87.5888 67.3302 87.4895 67.5884 87.4895 67.9062C87.4895 68.2438 87.6086 68.5219 87.8072 68.7205Z" fill="#E85F5C"/>
<path d="M94.3218 65.8803H95.4936L93.7061 69.932C93.5273 70.3094 93.3684 70.6272 93.2095 70.8258C93.0507 71.0443 92.852 71.2032 92.6336 71.3025C92.4151 71.4018 92.1569 71.4614 91.859 71.4614H91.4022V70.4683H91.7795C92.0377 70.4683 92.2363 70.4286 92.3356 70.3293C92.4548 70.23 92.574 70.0313 92.6932 69.7136L92.713 69.6738L90.9652 65.8803H92.1768L93.2691 68.4027L94.3218 65.8803Z" fill="#E85F5C"/>
<path d="M101.154 64.6489H102.286V69.9718H101.333L98.9098 66.635V69.9718H97.7777V64.6489H98.8105L101.154 67.9062V64.6489Z" fill="#E85F5C"/>
<path d="M105.305 70.0909C104.888 70.0909 104.511 69.9916 104.173 69.8129C103.835 69.6341 103.577 69.3561 103.379 69.0383C103.18 68.7006 103.101 68.3431 103.101 67.926C103.101 67.5089 103.2 67.1514 103.379 66.8138C103.577 66.4761 103.835 66.218 104.173 66.0392C104.511 65.8604 104.888 65.7611 105.305 65.7611C105.722 65.7611 106.1 65.8604 106.437 66.0392C106.775 66.218 107.033 66.4761 107.232 66.8138C107.43 67.1514 107.53 67.5089 107.53 67.926C107.53 68.3233 107.43 68.7006 107.232 69.0383C107.033 69.3759 106.775 69.6341 106.437 69.8129C106.1 70.0115 105.722 70.0909 105.305 70.0909ZM104.511 68.7404C104.709 68.9588 104.987 69.0581 105.305 69.0581C105.623 69.0581 105.881 68.9588 106.1 68.7404C106.318 68.5219 106.417 68.2637 106.417 67.926C106.417 67.5884 106.318 67.3302 106.1 67.1117C105.881 66.8932 105.623 66.7939 105.305 66.7939C104.987 66.7939 104.729 66.8932 104.511 67.1117C104.312 67.3302 104.193 67.5884 104.193 67.926C104.213 68.2637 104.312 68.5417 104.511 68.7404Z" fill="#E85F5C"/>
<path d="M110.429 65.8604H110.787V66.9131H110.31C109.992 66.9131 109.774 66.9925 109.635 67.1316C109.496 67.2706 109.436 67.5288 109.436 67.8664V70.0115H108.324V65.9002H109.039L109.238 66.3967C109.516 66.0392 109.913 65.8604 110.429 65.8604Z" fill="#E85F5C"/>
<path d="M113.448 68.9985H113.945V69.9916H113.15C112.694 69.9916 112.336 69.8526 112.078 69.5944C111.82 69.3362 111.681 68.9787 111.681 68.5219V66.7741H110.946V66.5357L112.574 64.8078H112.793V65.8803H113.925V66.7741H112.813V68.3828C112.813 68.5814 112.872 68.7403 112.972 68.8396C113.091 68.9389 113.25 68.9985 113.448 68.9985Z" fill="#E85F5C"/>
<path d="M117.063 65.781C117.52 65.781 117.897 65.9399 118.156 66.2378C118.434 66.5357 118.553 66.9528 118.553 67.4891V69.9916H117.441V67.6877C117.441 67.3699 117.381 67.1514 117.262 66.9925C117.143 66.8336 116.964 66.7741 116.726 66.7741C116.447 66.7741 116.229 66.8734 116.05 67.0521C115.891 67.2507 115.792 67.5089 115.792 67.8466V70.0115H114.68V64.4304H115.792V66.2974C116.15 65.9399 116.567 65.781 117.063 65.781Z" fill="#E85F5C"/>
<path d="M122.148 65.8803H123.3L121.671 69.9916H120.638L118.97 65.8803H120.162L121.155 68.641L122.148 65.8803Z" fill="#E85F5C"/>
<path d="M123.915 65.3242V64.2914H125.028V65.3242H123.915ZM123.915 69.9916V65.8803H125.028V69.9916H123.915Z" fill="#E85F5C"/>
<path d="M130.072 67.9062C130.072 68.0253 130.072 68.1246 130.053 68.2239H126.934C126.974 68.502 127.093 68.7205 127.272 68.8595C127.451 69.0184 127.669 69.078 127.947 69.078C128.146 69.078 128.305 69.0383 128.464 68.9588C128.623 68.8794 128.742 68.7602 128.821 68.6013H129.993C129.854 69.0581 129.596 69.3958 129.218 69.6738C128.861 69.932 128.424 70.0711 127.947 70.0711C127.55 70.0711 127.193 69.9718 126.855 69.793C126.537 69.5944 126.279 69.3362 126.08 69.0184C125.902 68.6808 125.802 68.3233 125.802 67.9062C125.802 67.5089 125.902 67.1316 126.08 66.7939C126.259 66.4563 126.517 66.1981 126.855 66.0193C127.173 65.8406 127.55 65.7413 127.947 65.7413C128.364 65.7413 128.722 65.8406 129.06 66.0392C129.377 66.2378 129.635 66.496 129.814 66.8138C129.973 67.1713 130.072 67.5288 130.072 67.9062ZM127.947 66.7145C127.709 66.7145 127.49 66.7741 127.332 66.9131C127.153 67.0521 127.034 67.2309 126.974 67.4891H128.96C128.881 67.2309 128.762 67.0521 128.583 66.9131C128.404 66.7741 128.186 66.7145 127.947 66.7145Z" fill="#E85F5C"/>
<path d="M135.534 65.8803H136.627L135.276 69.9916H134.382L133.449 67.8665L132.535 69.9916H131.641L130.291 65.8803H131.423L132.237 68.3233L133.31 65.9002H133.628L134.74 68.3233L135.534 65.8803Z" fill="#E85F5C"/>
<path d="M141.552 70.0909C141.175 70.0909 140.798 70.0115 140.46 69.8724C140.122 69.7334 139.824 69.5348 139.586 69.2965C139.348 69.0581 139.149 68.7602 139.01 68.4226C138.871 68.0849 138.792 67.7076 138.792 67.3302C138.792 66.933 138.871 66.5754 139.01 66.2179C139.149 65.8803 139.348 65.5824 139.586 65.3242C139.824 65.0858 140.122 64.8872 140.46 64.7482C140.798 64.6092 141.155 64.5297 141.552 64.5297C142.208 64.5297 142.764 64.7283 143.24 65.1256C143.717 65.5228 144.015 66.0193 144.134 66.6549H142.982C142.863 66.3371 142.684 66.0789 142.446 65.9002C142.188 65.7214 141.91 65.6221 141.572 65.6221C141.115 65.6221 140.738 65.781 140.44 66.0988C140.142 66.4166 139.983 66.8138 139.983 67.2905C139.983 67.7671 140.142 68.1644 140.44 68.4821C140.738 68.7999 141.115 68.9588 141.572 68.9588C141.93 68.9588 142.228 68.8595 142.486 68.6609C142.744 68.4623 142.923 68.2041 143.022 67.8664H144.194C144.075 68.5219 143.777 69.0581 143.3 69.4554C142.784 69.8923 142.208 70.0909 141.552 70.0909Z" fill="#E85F5C"/>
<path d="M147.253 65.781C147.709 65.781 148.087 65.9399 148.345 66.2378C148.623 66.5357 148.742 66.9528 148.742 67.4891V69.9916H147.63V67.6877C147.63 67.3699 147.57 67.1514 147.451 66.9925C147.332 66.8336 147.153 66.7741 146.915 66.7741C146.637 66.7741 146.418 66.8734 146.24 67.0521C146.081 67.2507 145.981 67.5089 145.981 67.8466V70.0115H144.869V64.4304H145.981V66.2974C146.339 65.9399 146.756 65.781 147.253 65.781Z" fill="#E85F5C"/>
<path d="M151.642 70.0909C151.066 70.0909 150.589 69.9122 150.232 69.5745C149.874 69.2369 149.695 68.7801 149.695 68.2239V65.8604H150.808V68.1246C150.808 68.4226 150.887 68.641 151.026 68.8198C151.165 68.9787 151.384 69.0581 151.622 69.0581C151.86 69.0581 152.079 68.9787 152.218 68.7999C152.357 68.641 152.436 68.4027 152.436 68.1246V65.8803H153.549V68.2438C153.549 68.7999 153.37 69.2369 153.012 69.5944C152.655 69.9519 152.238 70.0909 151.642 70.0909Z" fill="#E85F5C"/>
<path d="M156.687 65.8604H157.044V66.9131H156.568C156.25 66.9131 156.031 66.9925 155.892 67.1316C155.753 67.2706 155.694 67.5288 155.694 67.8664V70.0115H154.581V65.9002H155.296L155.495 66.3967C155.773 66.0392 156.17 65.8604 156.687 65.8604Z" fill="#E85F5C"/>
<path d="M159.487 70.0909C159.189 70.0909 158.891 70.0313 158.633 69.9122C158.355 69.793 158.137 69.654 157.938 69.4554C157.739 69.2567 157.6 69.0383 157.481 68.7602C157.362 68.4821 157.322 68.2041 157.322 67.9062C157.322 67.6082 157.382 67.3103 157.481 67.0521C157.6 66.7939 157.739 66.5556 157.938 66.357C158.137 66.1584 158.355 66.0193 158.633 65.9002C158.911 65.781 159.189 65.7413 159.507 65.7413C160.043 65.7413 160.5 65.9002 160.877 66.1981C161.255 66.496 161.493 66.9131 161.592 67.4295H160.48C160.401 67.2309 160.262 67.072 160.083 66.9528C159.904 66.8337 159.706 66.7741 159.487 66.7741C159.189 66.7741 158.931 66.8734 158.732 67.0918C158.534 67.3103 158.435 67.5685 158.435 67.8863C158.435 68.2041 158.534 68.4623 158.732 68.6808C158.931 68.8992 159.189 69.0184 159.487 69.0184C159.706 69.0184 159.904 68.9588 160.083 68.8397C160.262 68.7205 160.381 68.5417 160.48 68.3233H161.592C161.493 68.8397 161.255 69.2567 160.858 69.5745C160.5 69.932 160.023 70.0909 159.487 70.0909Z" fill="#E85F5C"/>
<path d="M164.691 65.781C165.148 65.781 165.525 65.9399 165.783 66.2378C166.061 66.5357 166.18 66.9528 166.18 67.4891V69.9916H165.068V67.6877C165.068 67.3699 165.009 67.1514 164.889 66.9925C164.77 66.8336 164.592 66.7741 164.353 66.7741C164.075 66.7741 163.857 66.8734 163.678 67.0521C163.519 67.2507 163.42 67.5089 163.42 67.8466V70.0115H162.307V64.4304H163.42V66.2974C163.777 65.9399 164.194 65.781 164.691 65.781Z" fill="#E85F5C"/>
</g>
<defs>
<clipPath id="clip0_222_291">
<rect width="183.44" height="71.4614" fill="white"/>
</clipPath>
</defs>
</svg>
